<svg width="16" height="16" viewBox="0 0 16 16" xmlns="http://www.w3.org/2000/svg">
    <path fill-rule="evenodd" clip-rule="evenodd" d="M7.77639 0.552786C7.91716 0.482405 8.08284 0.482405 8.22361 0.552786L15.2236 4.05279C15.393 4.13748 15.5 4.31061 15.5 4.5V11.5C15.5 11.6894 15.393 11.8625 15.2236 11.9472L8.22361 15.4472C8.08284 15.5176 7.91716 15.5176 7.77639 15.4472L0.776393 11.9472C0.607001 11.8625 0.5 11.6894 0.5 11.5V4.5C0.5 4.31061 0.607001 4.13748 0.776393 4.05279L7.77639 0.552786ZM1.5 5.30902V11.191L7.5 14.191V8.30902L1.5 5.30902ZM8.5 8.30902V14.191L14.5 11.191V5.30902L8.5 8.30902ZM13.882 4.5L8 7.44098L2.11803 4.5L8 1.55902L13.882 4.5Z" />
</svg>
