<svg width="24" height="24" viewBox="0 0 24 24" xmlns="http://www.w3.org/2000/svg">
    <path d="M7.20705 5.79292C6.81652 5.4024 6.18336 5.4024 5.79283 5.79292C5.40231 6.18344 5.40231 6.81661 5.79283 7.20713L10.5857 12L5.79286 16.7929C5.40234 17.1834 5.40234 17.8166 5.79286 18.2071C6.18339 18.5976 6.81655 18.5976 7.20707 18.2071L11.9999 13.4142L16.7928 18.2071C17.1834 18.5977 17.8165 18.5977 18.207 18.2071C18.5976 17.8166 18.5976 17.1834 18.207 16.7929L13.4142 12L18.2071 7.20711C18.5976 6.81658 18.5976 6.18342 18.2071 5.79289C17.8166 5.40237 17.1834 5.40237 16.7929 5.79289L11.9999 10.5858L7.20705 5.79292Z" />
</svg>
