<svg width="16" height="16" viewBox="0 0 16 16" xmlns="http://www.w3.org/2000/svg">
    <path fill-rule="evenodd" clip-rule="evenodd" d="M6 2.5C5.72386 2.5 5.5 2.72386 5.5 3V5.07644L2.9178 5.50681C2.79395 5.52745 2.68241 5.59393 2.60532 5.69303L0.605324 8.26446C0.537061 8.35223 0.5 8.46024 0.5 8.57143V12C0.5 12.2761 0.723858 12.5 1 12.5H2.56301C2.78503 13.3626 3.56808 14 4.5 14C5.43192 14 6.21497 13.3626 6.43699 12.5H10.563C10.785 13.3626 11.5681 14 12.5 14C13.4319 14 14.215 13.3626 14.437 12.5H15C15.2761 12.5 15.5 12.2761 15.5 12V3C15.5 2.72386 15.2761 2.5 15 2.5H6ZM5.5 10.2676V6.09023L3.2748 6.4611L1.5 8.74299V11.5H2.56301C2.78503 10.6374 3.56808 10 4.5 10C4.86429 10 5.20583 10.0974 5.5 10.2676ZM12.5 13C11.9477 13 11.5 12.5523 11.5 12C11.5 11.4477 11.9477 11 12.5 11C13.0523 11 13.5 11.4477 13.5 12C13.5 12.5523 13.0523 13 12.5 13ZM12.5 10C13.4319 10 14.215 10.6374 14.437 11.5H14.5V3.5H6.5V11.5H10.563C10.785 10.6374 11.5681 10 12.5 10ZM3.5 12C3.5 11.4477 3.94772 11 4.5 11C5.05228 11 5.5 11.4477 5.5 12C5.5 12.5523 5.05228 13 4.5 13C3.94772 13 3.5 12.5523 3.5 12Z" />
</svg>
