<svg width="16" height="16" viewBox="0 0 16 16" xmlns="http://www.w3.org/2000/svg">
    <path fill-rule="evenodd" clip-rule="evenodd" d="M8 1.49976C7.54389 0.892672 6.8178 0.5 6 0.5C4.61929 0.5 3.5 1.61929 3.5 3C3.5 3.5628 3.68597 4.08217 3.99982 4.5H1.5C1.22386 4.5 1 4.72386 1 5V8C1 8.27614 1.22386 8.5 1.5 8.5H2V15C2 15.2761 2.22386 15.5 2.5 15.5H13.5C13.7761 15.5 14 15.2761 14 15V8.5H14.5C14.7761 8.5 15 8.27614 15 8V5C15 4.72386 14.7761 4.5 14.5 4.5H12.0002C12.314 4.08217 12.5 3.5628 12.5 3C12.5 1.61929 11.3807 0.5 10 0.5C9.1822 0.5 8.45612 0.892672 8 1.49976ZM6 1.5C5.17157 1.5 4.5 2.17157 4.5 3C4.5 3.82843 5.17157 4.5 6 4.5H7.5V3C7.5 2.17157 6.82843 1.5 6 1.5ZM8.5 5.5V7.5H14V5.5H8.5ZM10 4.5C10.8284 4.5 11.5 3.82843 11.5 3C11.5 2.17157 10.8284 1.5 10 1.5C9.17157 1.5 8.5 2.17157 8.5 3V4.5H10ZM7.5 5.5V7.5H2V5.5H7.5ZM8.5 14.5H13V8.5H8.5V14.5ZM7.5 8.5V14.5H3V8.5H7.5Z" />
</svg>
