<svg width="24" height="24" viewBox="0 0 24 24" xmlns="http://www.w3.org/2000/svg">
    <path fill-rule="evenodd" clip-rule="evenodd" d="M12 5C9.23858 5 7 7.23858 7 10C7 12.7614 9.23858 15 12 15C14.7614 15 17 12.7614 17 10C17 7.23858 14.7614 5 12 5ZM9 10C9 8.34315 10.3431 7 12 7C13.6569 7 15 8.34315 15 10C15 11.6569 13.6569 13 12 13C10.3431 13 9 11.6569 9 10Z" />
    <path fill-rule="evenodd" clip-rule="evenodd" d="M11.4429 23.8304C11.4432 23.8306 11.4434 23.8308 12 23L11.4429 23.8304C11.7796 24.056 12.2198 24.0564 12.5566 23.8308L12 23C12.5566 23.8308 12.5563 23.831 12.5566 23.8308L12.5579 23.8299L12.56 23.8285L12.5666 23.824L12.5895 23.8085C12.6089 23.7952 12.6367 23.7761 12.6722 23.7515C12.7432 23.7021 12.8452 23.6301 12.9738 23.5368C13.231 23.3503 13.5951 23.0781 14.0305 22.7302C14.8998 22.0357 16.0614 21.0328 17.2265 19.8011C19.5151 17.3817 22 13.8877 22 10C22 4.47715 17.5228 -2.41411e-07 12 0C6.47715 2.41411e-07 2 4.47715 2 10C2 13.8877 4.48492 17.3817 6.77352 19.8011C7.93858 21.0328 9.10025 22.0357 9.96952 22.7302C10.4049 23.0781 10.769 23.3503 11.0262 23.5368C11.1548 23.6301 11.2568 23.7021 11.3278 23.7515C11.3633 23.7761 11.3911 23.7952 11.4105 23.8085L11.4334 23.824L11.44 23.8285L11.4429 23.8304ZM4 10C4 5.58172 7.58172 2 12 2C16.4183 2 20 5.58172 20 10C20 13.0829 17.9849 16.0889 15.7735 18.4268C14.6886 19.5738 13.6002 20.514 12.782 21.1677C12.4782 21.4105 12.2128 21.6128 12 21.7707C11.7872 21.6128 11.5218 21.4105 11.218 21.1677C10.3998 20.514 9.31142 19.5738 8.22648 18.4268C6.01508 16.0889 4 13.0829 4 10Z" />
</svg>
