<svg width="24" height="24" viewBox="0 0 24 24"  xmlns="http://www.w3.org/2000/svg">
    <path fill-rule="evenodd" clip-rule="evenodd" d="M16.6587 3H15.5856C12.6026 3 10.1752 5.44668 10.1752 8.45482V10.7556H8.34234C8.15315 10.7556 8 10.9115 8 11.1023V13.8607C8 14.0515 8.15315 14.2054 8.34234 14.2054H10.1752V22.6533C10.1752 22.8442 10.3283 23 10.5175 23H13.2523C13.4414 23 13.5946 22.8442 13.5946 22.6533V14.2054H16.3153C16.5045 14.2054 16.6577 14.0515 16.6577 13.8607V11.1023C16.6577 10.9115 16.5045 10.7556 16.3153 10.7556H13.5946V8.45482C13.5946 7.34887 14.4875 6.44872 15.5846 6.44872H16.6587C16.8468 6.44872 17 6.29287 17 6.10305V3.34367C17 3.15385 16.8468 3 16.6587 3Z" />
</svg>
