<svg width="24" height="24" viewBox="0 0 24 24" fill="none" xmlns="http://www.w3.org/2000/svg">
    <path fill-rule="evenodd" clip-rule="evenodd" d="M15.6966 3H14.7427C12.0912 3 9.93349 5.20201 9.93349 7.90934V9.98007H8.3043C8.13614 9.98007 8 10.1203 8 10.2921V12.7746C8 12.9464 8.13614 13.0848 8.3043 13.0848H9.93349V20.688C9.93349 20.8597 10.0696 21 10.2378 21H12.6687C12.8368 21 12.973 20.8597 12.973 20.688V13.0848H15.3914C15.5596 13.0848 15.6957 12.9464 15.6957 12.7746V10.2921C15.6957 10.1203 15.5596 9.98007 15.3914 9.98007H12.973V7.90934C12.973 6.91398 13.7667 6.10385 14.7419 6.10385H15.6966C15.8639 6.10385 16 5.96358 16 5.79275V3.30931C16 3.13847 15.8639 3 15.6966 3Z" fill="#3B5998"/>
</svg>
