<svg width="40" height="40" viewBox="0 0 40 40" fill="none" xmlns="http://www.w3.org/2000/svg">
    <rect width="40" height="40" rx="20" fill="#141116"/>
    <path fill-rule="evenodd" clip-rule="evenodd" d="M23.6966 11H22.7427C20.0912 11 17.9335 13.202 17.9335 15.9093V17.9801H16.3043C16.1361 17.9801 16 18.1203 16 18.2921V20.7746C16 20.9464 16.1361 21.0848 16.3043 21.0848H17.9335V28.688C17.9335 28.8597 18.0696 29 18.2378 29H20.6687C20.8368 29 20.973 28.8597 20.973 28.688V21.0848H23.3914C23.5596 21.0848 23.6957 20.9464 23.6957 20.7746V18.2921C23.6957 18.1203 23.5596 17.9801 23.3914 17.9801H20.973V15.9093C20.973 14.914 21.7667 14.1039 22.7419 14.1039H23.6966C23.8639 14.1039 24 13.9636 24 13.7927V11.3093C24 11.1385 23.8639 11 23.6966 11Z" fill="white"/>
</svg>
