<svg width="32" height="32" viewBox="0 0 32 32" fill="none" xmlns="http://www.w3.org/2000/svg">
<path fill-rule="evenodd" clip-rule="evenodd" d="M32 16C32 24.8366 24.8366 32 16 32C7.16344 32 0 24.8366 0 16C0 7.16344 7.16344 0 16 0C24.8366 0 32 7.16344 32 16ZM18.7427 7H19.6966C19.8639 7 20 7.13847 20 7.30931V9.79275C20 9.96358 19.8639 10.1039 19.6966 10.1039H18.7419C17.7667 10.1039 16.973 10.914 16.973 11.9093V13.9801H19.3914C19.5596 13.9801 19.6957 14.1203 19.6957 14.2921V16.7746C19.6957 16.9464 19.5596 17.0848 19.3914 17.0848H16.973V24.688C16.973 24.8597 16.8368 25 16.6687 25H14.2378C14.0696 25 13.9335 24.8597 13.9335 24.688V17.0848H12.3043C12.1361 17.0848 12 16.9464 12 16.7746V14.2921C12 14.1203 12.1361 13.9801 12.3043 13.9801H13.9335V11.9093C13.9335 9.20201 16.0912 7 18.7427 7Z" fill="#141116"/>
</svg>
