<svg width="24" height="24" viewBox="0 0 24 24" fill="none" xmlns="http://www.w3.org/2000/svg">
    <path d="M19.9898 10.7721H12.277V13.9701H16.7152C16.3041 16.0045 14.5693 17.168 12.277 17.168C9.5668 17.168 7.38607 14.9873 7.38607 12.277C7.38607 9.5668 9.5668 7.38607 12.277 7.38607C13.4406 7.38607 14.4996 7.79713 15.3287 8.47992L17.7324 6.06926C16.2693 4.7873 14.3811 4 12.277 4C7.68566 4 4 7.68566 4 12.277C4 16.8684 7.68566 20.5541 12.277 20.5541C16.4156 20.5541 20.1779 17.5443 20.1779 12.277C20.1779 11.7893 20.1082 11.2598 19.9898 10.7721Z" fill="black"/>
</svg>
