<svg width="24" height="24" viewBox="0 0 24 24" fill="none" xmlns="http://www.w3.org/2000/svg">
    <path d="M7.38607 12.277C7.38607 11.7406 7.47664 11.225 7.62992 10.7373L4.84303 8.61229C4.29959 9.71311 4 10.9602 4 12.277C4 13.5938 4.30656 14.841 4.85 15.9418L7.63688 13.8098C7.46967 13.3361 7.38607 12.8205 7.38607 12.277Z" fill="#FBBC05"/>
    <path d="M4.84277 8.61229L7.62966 10.7443C8.27064 8.79344 10.103 7.39303 12.2768 7.39303C13.4403 7.39303 14.4993 7.8041 15.3284 8.48689L17.7321 6.06926C16.269 4.7873 14.3809 4 12.2768 4C9.0022 4 6.19441 5.87418 4.84277 8.61229Z" fill="#EA4335"/>
    <path d="M12.2768 10.7721V13.9701H16.7149C16.3038 16.0045 14.569 17.168 12.2768 17.168C10.103 17.168 8.27064 15.7606 7.62966 13.8098L4.84277 15.9418C6.18745 18.6799 9.0022 20.5541 12.2768 20.5541C16.4153 20.5541 20.1776 17.5443 20.1776 12.277C20.1776 11.7893 20.101 11.2598 19.9895 10.7721H12.2768Z" fill="#34A853"/>
    <path d="M12.2773 10.7721V13.9701H16.7155C16.4925 15.0639 15.8933 15.9 15.0294 16.4504L17.67 18.4988C19.1888 17.0844 20.1782 14.9803 20.1782 12.284C20.1782 11.7963 20.1015 11.2668 19.99 10.7791H12.2773V10.7721Z" fill="#4285F4"/>
</svg>
