<svg width="32" height="32" viewBox="0 0 32 32" fill="none" xmlns="http://www.w3.org/2000/svg">
<path d="M16.1628 14.7273H22.8372C22.9397 15.1397 23 15.5875 23 16C23 20.4545 19.7442 23 16.1628 23C12.1895 23 9 19.883 9 16C9 12.117 12.1895 9 16.1628 9C17.9836 9 19.6176 9.66582 20.8837 10.75L18.8036 12.7887C18.0861 12.2113 17.1697 11.8636 16.1628 11.8636C13.8174 11.8636 11.9302 13.7079 11.9302 16C11.9302 18.2921 13.8174 20.1364 16.1628 20.1364C18.1464 20.1364 19.6477 19.1524 20.0034 17.4318H16.1628V14.7273Z" fill="#141116"/>
<path fill-rule="evenodd" clip-rule="evenodd" d="M16 32C24.8366 32 32 24.8366 32 16C32 7.16344 24.8366 0 16 0C7.16344 0 0 7.16344 0 16C0 24.8366 7.16344 32 16 32ZM30 16C30 23.732 23.732 30 16 30C8.26801 30 2 23.732 2 16C2 8.26801 8.26801 2 16 2C23.732 2 30 8.26801 30 16Z" fill="#141116"/>
</svg>
