<svg width="40" height="40" viewBox="0 0 40 40" fill="none" xmlns="http://www.w3.org/2000/svg">
    <rect width="40" height="40" rx="20" fill="#141116"/>
    <path fill-rule="evenodd" clip-rule="evenodd" d="M20.7767 15.0106C19.7364 14.8564 18.6739 15.0341 17.7404 15.5184C16.8069 16.0028 16.0499 16.7692 15.5771 17.7086C15.1043 18.648 14.9397 19.7126 15.1068 20.7509C15.2739 21.7892 15.7641 22.7484 16.5077 23.4921C17.2514 24.2357 18.2106 24.726 19.2489 24.893C20.2873 25.0601 21.3518 24.8955 22.2912 24.4227C23.2306 23.9499 23.997 23.1929 24.4814 22.2594C24.9658 21.3259 25.1435 20.2634 24.9892 19.2231C24.8318 18.162 24.3374 17.1796 23.5788 16.421C22.8203 15.6625 21.8379 15.168 20.7767 15.0106ZM18.6616 17.2937C19.2217 17.0031 19.8591 16.8964 20.4833 16.989C21.12 17.0834 21.7095 17.3801 22.1646 17.8352C22.6197 18.2904 22.9164 18.8798 23.0108 19.5165C23.1034 20.1407 22.9968 20.7782 22.7061 21.3383C22.4155 21.8984 21.9557 22.3526 21.392 22.6363C20.8284 22.9199 20.1897 23.0187 19.5667 22.9184C18.9437 22.8182 18.3682 22.5241 17.922 22.0779C17.4758 21.6317 17.1816 21.0562 17.0814 20.4332C16.9811 19.8102 17.0799 19.1714 17.3636 18.6078C17.6473 18.0441 18.1015 17.5843 18.6616 17.2937Z" fill="white"/>
    <path fill-rule="evenodd" clip-rule="evenodd" d="M15 9C11.6863 9 9 11.6863 9 15V25C9 28.3137 11.6863 31 15 31H25C28.3137 31 31 28.3137 31 25V15C31 11.6863 28.3137 9 25 9H15ZM11 15C11 12.7909 12.7909 11 15 11H25C27.2091 11 29 12.7909 29 15V25C29 27.2091 27.2091 29 25 29H15C12.7909 29 11 27.2091 11 25V15Z" fill="white"/>
    <path d="M27 14.5C27 15.3284 26.3284 16 25.5 16C24.6716 16 24 15.3284 24 14.5C24 13.6716 24.6716 13 25.5 13C26.3284 13 27 13.6716 27 14.5Z" fill="white"/>
</svg>
