<svg width="24" height="24" viewBox="0 0 24 24" xmlns="http://www.w3.org/2000/svg">
    <path fill-rule="evenodd" clip-rule="evenodd" d="M12.7767 7.01063C11.7364 6.85637 10.6739 7.03406 9.74043 7.51843C8.80693 8.00281 8.04993 8.7692 7.5771 9.7086C7.10428 10.648 6.9397 11.7126 7.10678 12.7509C7.27386 13.7892 7.76409 14.7484 8.50775 15.4921C9.2514 16.2357 10.2106 16.726 11.2489 16.893C12.2873 17.0601 13.3518 16.8955 14.2912 16.4227C15.2306 15.9499 15.997 15.1929 16.4814 14.2594C16.9658 13.3259 17.1435 12.2634 16.9892 11.2231C16.8318 10.162 16.3374 9.17957 15.5788 8.42101C14.8203 7.66246 13.8379 7.16799 12.7767 7.01063ZM10.6616 9.29368C11.2217 9.00305 11.8591 8.89644 12.4833 8.989C13.12 9.08341 13.7095 9.3801 14.1646 9.83523C14.6197 10.2904 14.9164 10.8798 15.0108 11.5165C15.1034 12.1407 14.9968 12.7782 14.7061 13.3383C14.4155 13.8984 13.9557 14.3526 13.392 14.6363C12.8284 14.9199 12.1897 15.0187 11.5667 14.9184C10.9437 14.8182 10.3682 14.5241 9.92196 14.0779C9.47577 13.6317 9.18163 13.0562 9.08138 12.4332C8.98113 11.8102 9.07988 11.1714 9.36357 10.6078C9.64727 10.0441 10.1015 9.5843 10.6616 9.29368Z" />
    <path fill-rule="evenodd" clip-rule="evenodd" d="M7 1C3.68629 1 1 3.68629 1 7V17C1 20.3137 3.68629 23 7 23H17C20.3137 23 23 20.3137 23 17V7C23 3.68629 20.3137 1 17 1H7ZM3 7C3 4.79086 4.79086 3 7 3H17C19.2091 3 21 4.79086 21 7V17C21 19.2091 19.2091 21 17 21H7C4.79086 21 3 19.2091 3 17V7Z" />
    <path d="M19 6.5C19 7.32843 18.3284 8 17.5 8C16.6716 8 16 7.32843 16 6.5C16 5.67157 16.6716 5 17.5 5C18.3284 5 19 5.67157 19 6.5Z" />
</svg>
