<svg width="32" height="32" viewBox="0 0 32 32" fill="none" xmlns="http://www.w3.org/2000/svg">
    <rect width="32" height="32" rx="6" fill="#EB722E"/>
    <path fill-rule="evenodd" clip-rule="evenodd" d="M21.6849 18.111C21.0659 18.7467 20.3223 19.2073 19.4955 19.528C18.7139 19.8296 17.8576 19.9828 17.0104 20.0856C17.1379 20.2236 17.198 20.293 17.2783 20.373C18.4294 21.5301 19.5851 22.6816 20.7315 23.8425C21.1223 24.2374 21.2045 24.7284 20.9893 25.19C20.7537 25.6915 20.2271 26.0226 19.7107 25.9865C19.3837 25.9636 19.1278 25.8009 18.9015 25.5735C18.0331 24.698 17.1481 23.8387 16.2972 22.949C16.0497 22.6901 15.9314 22.7396 15.7125 22.9632C14.8386 23.8625 13.9508 24.7503 13.0584 25.6315C12.6565 26.0274 12.1798 26.0987 11.7143 25.8723C11.22 25.6315 10.9059 25.1272 10.9299 24.62C10.9466 24.2764 11.1156 24.0138 11.3512 23.7797C12.4893 22.6406 13.6256 21.5006 14.7619 20.3597C14.8367 20.2854 14.9069 20.2045 15.0159 20.0865C13.4667 19.9257 12.0699 19.5432 10.8745 18.6059C10.7258 18.4907 10.5724 18.3775 10.4376 18.249C9.91375 17.7447 9.8611 17.168 10.275 16.5732C10.6297 16.0679 11.2246 15.93 11.8427 16.2202C11.9628 16.2792 12.0764 16.3487 12.1854 16.4257C14.4145 17.9588 17.476 18.0006 19.7135 16.4943C19.9352 16.3239 20.1726 16.1859 20.447 16.1146C20.9809 15.9766 21.4789 16.1755 21.7653 16.6399C22.0923 17.1756 22.0886 17.6961 21.6849 18.111ZM15.9601 16.1231C13.196 16.1136 10.9299 13.8203 10.9466 11.0502C10.9623 8.24865 13.2302 5.99146 16.021 6.00002C18.8174 6.00669 21.0622 8.29623 21.0484 11.1263C21.0336 13.8907 18.7518 16.1327 15.9601 16.1231ZM16.0007 8.58362C14.6178 8.58362 13.5129 9.69699 13.524 11.0863C13.5341 12.4566 14.6381 13.5443 16.0136 13.5376C17.3846 13.5338 18.4765 12.4309 18.4719 11.0559C18.4673 9.68081 17.3726 8.58552 16.0007 8.58362Z" fill="white"/>
</svg>
