<svg width="32" height="32" viewBox="0 0 32 32" fill="none" xmlns="http://www.w3.org/2000/svg">
<path d="M22.3678 9.56988L7.29157 15.2797C6.25825 15.6765 6.27649 16.2384 7.11435 16.4995L10.974 17.6822L19.9272 12.1451C20.3429 11.8738 20.7286 12.0274 20.4132 12.3L13.1683 18.7292L12.8908 22.6369C13.2947 22.6369 13.4706 22.4641 13.6791 22.2593L15.5646 20.475L19.4737 23.305C20.1865 23.7018 20.696 23.497 20.8862 22.6548L23.4532 10.7756L23.4519 10.7769C23.6787 9.73756 23.0675 9.32157 22.3678 9.56988Z" fill="#141116"/>
<path fill-rule="evenodd" clip-rule="evenodd" d="M16 32C24.8366 32 32 24.8366 32 16C32 7.16344 24.8366 0 16 0C7.16344 0 0 7.16344 0 16C0 24.8366 7.16344 32 16 32ZM30 16C30 23.732 23.732 30 16 30C8.26801 30 2 23.732 2 16C2 8.26801 8.26801 2 16 2C23.732 2 30 8.26801 30 16Z" fill="#141116"/>
</svg>
