<svg width="24" height="24" viewBox="0 0 24 24" fill="none" xmlns="http://www.w3.org/2000/svg">
    <path fill-rule="evenodd" clip-rule="evenodd" d="M2.33559 11.1514L6.71358 12.8306L8.40812 18.4309C8.51656 18.7896 8.94335 18.9222 9.22666 18.6842L11.667 16.6397C11.9228 16.4255 12.2872 16.4149 12.5545 16.6143L16.9561 19.8983C17.2591 20.1246 17.6884 19.9539 17.7644 19.5776L20.9888 3.63907C21.0718 3.22801 20.6787 2.8851 20.2978 3.03647L2.33046 10.1594C1.88706 10.3351 1.89095 10.9802 2.33559 11.1514ZM8.13503 11.9368L16.6912 6.52129C16.845 6.42423 17.0032 6.63791 16.8712 6.76379L9.80982 13.5091C9.56161 13.7465 9.4015 14.0643 9.35615 14.4092L9.11563 16.241C9.08377 16.4856 8.74941 16.5099 8.68376 16.2732L7.75865 12.9327C7.65268 12.5517 7.80708 12.1448 8.13503 11.9368Z" fill="#64A9DC"/>
</svg>
