<svg width="24" height="24" viewBox="0 0 24 24"  xmlns="http://www.w3.org/2000/svg">
    <path fill-rule="evenodd" clip-rule="evenodd" d="M2.35326 11.6309L6.96166 13.4089L8.74539 19.3386C8.85954 19.7184 9.30879 19.8588 9.60701 19.6068L12.1758 17.4421C12.4451 17.2153 12.8286 17.204 13.11 17.4151L17.7432 20.8923C18.0622 21.1319 18.5141 20.9512 18.5941 20.5528L21.9882 3.67667C22.0755 3.24142 21.6618 2.87834 21.2609 3.03862L2.34786 10.5805C1.88111 10.7665 1.88521 11.4496 2.35326 11.6309ZM8.45792 12.4625L17.4645 6.72842C17.6263 6.62565 17.7929 6.85191 17.6539 6.98519L10.2209 14.1273C9.95958 14.3787 9.79106 14.7151 9.74332 15.0803L9.49014 17.0199C9.4566 17.2789 9.10465 17.3046 9.03554 17.0539L8.06173 13.517C7.95019 13.1136 8.11272 12.6827 8.45792 12.4625Z" />
</svg>
