<svg width="24" height="24" viewBox="0 0 24 24" fill="none" xmlns="http://www.w3.org/2000/svg">
    <path fill-rule="evenodd" clip-rule="evenodd" d="M19.559 5.24C18.924 5.616 18.221 5.889 17.473 6.037C16.874 5.398 16.022 5 15.078 5C13.265 5 11.795 6.47 11.795 8.282C11.795 8.539 11.824 8.79 11.88 9.03C9.152 8.893 6.733 7.586 5.115 5.6C4.832 6.084 4.671 6.648 4.671 7.25C4.671 8.389 5.251 9.394 6.131 9.982C5.593 9.964 5.087 9.816 4.644 9.57V9.611C4.644 11.201 5.776 12.527 7.276 12.83C7.002 12.904 6.712 12.945 6.412 12.945C6.2 12.945 5.995 12.924 5.794 12.886C6.212 14.19 7.423 15.139 8.859 15.166C7.736 16.046 6.32 16.57 4.783 16.57C4.518 16.57 4.257 16.555 4 16.525C5.453 17.456 7.177 18 9.032 18C15.069 18 18.37 12.998 18.37 8.66L18.36 8.235C19.003 7.774 19.561 7.196 20 6.538C19.411 6.799 18.78 6.976 18.116 7.055C18.793 6.649 19.313 6.005 19.559 5.24Z" fill="#00ACED"/>
</svg>
