<svg width="24" height="24" viewBox="0 0 24 24" xmlns="http://www.w3.org/2000/svg">
    <path fill-rule="evenodd" clip-rule="evenodd" d="M21.4487 4.29538C20.655 4.75815 19.7762 5.09415 18.8412 5.27631C18.0925 4.48985 17.0275 4 15.8475 4C13.5813 4 11.7437 5.80923 11.7437 8.03938C11.7437 8.35569 11.78 8.66462 11.85 8.96C8.44 8.79139 5.41625 7.18277 3.39375 4.73846C3.04 5.33415 2.83875 6.02831 2.83875 6.76923C2.83875 8.17108 3.56375 9.408 4.66375 10.1317C3.99125 10.1095 3.35875 9.92738 2.805 9.62462V9.67508C2.805 11.632 4.22 13.264 6.095 13.6369C5.7525 13.728 5.39 13.7785 5.015 13.7785C4.75 13.7785 4.49375 13.7526 4.2425 13.7058C4.765 15.3108 6.27875 16.4788 8.07375 16.512C6.67 17.5951 4.9 18.24 2.97875 18.24C2.6475 18.24 2.32125 18.2215 2 18.1846C3.81625 19.3305 5.97125 20 8.29 20C15.8363 20 19.9625 13.8437 19.9625 8.50462L19.95 7.98154C20.7537 7.41415 21.4513 6.70277 22 5.89292C21.2638 6.21415 20.475 6.432 19.645 6.52923C20.4913 6.02954 21.1413 5.23692 21.4487 4.29538Z" />
</svg>
