<svg width="32" height="32" viewBox="0 0 32 32" fill="none" xmlns="http://www.w3.org/2000/svg">
    <rect width="32" height="32" rx="6" fill="#00ACED"/>
    <path fill-rule="evenodd" clip-rule="evenodd" d="M23.559 10.24C22.924 10.616 22.221 10.889 21.473 11.037C20.874 10.398 20.022 10 19.078 10C17.265 10 15.795 11.47 15.795 13.282C15.795 13.539 15.824 13.79 15.88 14.03C13.152 13.893 10.733 12.586 9.115 10.6C8.832 11.084 8.671 11.648 8.671 12.25C8.671 13.389 9.251 14.394 10.131 14.982C9.593 14.964 9.087 14.816 8.644 14.57V14.611C8.644 16.201 9.776 17.527 11.276 17.83C11.002 17.904 10.712 17.945 10.412 17.945C10.2 17.945 9.995 17.924 9.794 17.886C10.212 19.19 11.423 20.139 12.859 20.166C11.736 21.046 10.32 21.57 8.783 21.57C8.518 21.57 8.257 21.555 8 21.525C9.453 22.456 11.177 23 13.032 23C19.069 23 22.37 17.998 22.37 13.66L22.36 13.235C23.003 12.774 23.561 12.196 24 11.538C23.411 11.799 22.78 11.976 22.116 12.055C22.793 11.649 23.313 11.005 23.559 10.24Z" fill="white"/>
</svg>
