<svg width="24" height="24" viewBox="0 0 24 24" fill="none" xmlns="http://www.w3.org/2000/svg">
    <path d="M12.509 7.46337C12.5176 7.30294 12.6558 7.17979 12.8176 7.18831C13.4236 7.22023 13.928 7.40153 14.287 7.76916C14.6448 8.13552 14.8197 8.64748 14.8497 9.26303C14.8576 9.4235 14.7327 9.55988 14.5708 9.56763C14.409 9.57539 14.2714 9.45159 14.2636 9.29112C14.2379 8.7642 14.0925 8.40636 13.8654 8.17387C13.6396 7.94265 13.2945 7.79605 12.7865 7.7693C12.6246 7.76077 12.5004 7.62381 12.509 7.46337Z" fill="#665CAC"/>
    <path d="M12.3772 5.62852C12.2155 5.61714 12.0752 5.73783 12.0637 5.89809C12.0522 6.05834 12.174 6.19748 12.3356 6.20886C13.4539 6.28759 14.2934 6.66084 14.894 7.30964C15.499 7.96304 15.7936 8.7748 15.7708 9.77094C15.7671 9.93156 15.8954 10.0647 16.0574 10.0684C16.2195 10.072 16.3538 9.94478 16.3575 9.78416C16.3834 8.65412 16.0444 7.69178 15.3264 6.91622C14.6041 6.13608 13.6123 5.71547 12.3772 5.62852Z" fill="#665CAC"/>
    <path d="M11.5477 4.40849C11.5488 4.24784 11.681 4.11843 11.843 4.11946C13.5464 4.13026 14.989 4.69481 16.1436 5.81046L16.1439 5.81079C17.3078 6.93904 17.8854 8.46906 17.8998 10.3759C17.901 10.5366 17.7706 10.6678 17.6086 10.669C17.4465 10.6702 17.3142 10.5409 17.313 10.3803C17.2995 8.5941 16.7631 7.22485 15.7338 6.22695C14.6952 5.22345 13.4014 4.71116 11.8393 4.70125C11.6772 4.70022 11.5467 4.56915 11.5477 4.40849Z" fill="#665CAC"/>
    <path d="M13.4948 12.9357C13.2755 13.2084 12.8612 13.1739 12.8612 13.1739C9.8463 12.4111 9.03861 9.38408 9.03861 9.38408C9.03861 9.38408 9.00379 8.97679 9.27882 8.75589L9.82193 8.3279C10.0935 8.1208 10.2641 7.62033 9.98904 7.1302C9.83585 6.85753 9.52949 6.37086 9.30319 6.06367C9.06298 5.73922 8.50595 5.07652 8.50247 5.07307C8.2344 4.75552 7.83752 4.68304 7.41975 4.89704C7.41975 4.89704 7.41627 4.90049 7.41278 4.90049C7.0159 5.12139 6.64687 5.41822 6.30221 5.79445L6.29525 5.80135C6.03762 6.10854 5.88792 6.41228 5.85311 6.70911C5.84614 6.74363 5.84266 6.7885 5.84615 6.84027C5.84266 6.97143 5.86355 7.09914 5.90533 7.22685L5.91925 7.2372C6.04807 7.69626 6.37532 8.45906 7.08205 9.73269C7.5416 10.5576 8.01159 11.2479 8.4781 11.8278C8.7218 12.135 9.00031 12.4491 9.3206 12.7701L9.44593 12.8943C9.76971 13.2119 10.0865 13.488 10.3964 13.7296C10.9812 14.1921 11.674 14.6581 12.5096 15.1137C13.7942 15.8144 14.5636 16.1388 15.0267 16.2665L15.0371 16.2803C15.1659 16.3217 15.2947 16.339 15.427 16.339C15.4792 16.3424 15.5245 16.339 15.5593 16.3321C15.8587 16.2976 16.1651 16.1492 16.4749 15.8937L16.4819 15.8868C16.8614 15.5451 17.1608 15.1758 17.3836 14.7858C17.3836 14.7858 17.3871 14.7823 17.3871 14.7789C17.6029 14.3647 17.5298 13.9712 17.2095 13.7054C17.2095 13.7054 16.5376 13.1497 16.2103 12.9116C15.904 12.6872 15.4096 12.3869 15.1346 12.2316C14.6402 11.9589 14.1354 12.1281 13.9265 12.3973L13.4948 12.9357Z" fill="#665CAC"/>
    <path fill-rule="evenodd" clip-rule="evenodd" d="M20.5168 2.24277C19.9389 1.71813 17.6099 0.0406705 12.4225 0.0165095C12.4225 0.0165095 6.30221 -0.349357 3.31864 2.36358C1.658 4.00998 1.07312 6.41917 1.01393 9.40823C0.951269 12.3973 0.871198 17.9923 6.31614 19.511H6.31962L6.31614 21.827C6.31614 21.827 6.28132 22.7658 6.9045 22.9556C7.53245 23.1488 7.94434 22.6848 8.48278 22.0783C8.58913 21.9585 8.70042 21.8331 8.81928 21.7062C9.21268 21.2851 9.75926 20.6638 10.1701 20.1909C13.8917 20.5016 16.7569 19.7906 17.0807 19.687C17.1477 19.6655 17.2424 19.6416 17.36 19.6119L17.3601 19.6119L17.3604 19.6118L17.3605 19.6118C18.5632 19.3085 22.1485 18.4045 22.7763 13.3085C23.49 7.54093 22.4316 3.88917 20.5168 2.24277ZM21.147 12.8943C20.6198 17.1066 17.7651 17.7634 16.7428 17.9986C16.6309 18.0243 16.5409 18.045 16.4784 18.0648C16.2069 18.1511 13.6933 18.7723 10.5321 18.5652C10.5321 18.5652 8.17522 21.3817 7.44064 22.1169C7.32575 22.2308 7.18998 22.2791 7.09946 22.255C6.97413 22.2239 6.93931 22.0755 6.93931 21.858C6.94279 21.5474 6.9602 18.0095 6.9602 18.0095C2.50961 16.7846 2.61345 12.2869 2.67236 9.73492C2.67437 9.64785 2.67633 9.56305 2.67805 9.48071C2.73028 6.98523 3.20375 4.9419 4.60676 3.56817C7.13079 1.30394 12.3286 1.6422 12.3286 1.6422C16.7186 1.66291 18.8214 2.97105 19.3088 3.4094C20.9277 4.78658 21.7528 8.07592 21.147 12.8943Z" fill="#665CAC"/>
</svg>
