<svg width="32" height="32" viewBox="0 0 32 32" fill="none" xmlns="http://www.w3.org/2000/svg">
<path fill-rule="evenodd" clip-rule="evenodd" d="M32 16C32 24.8366 24.8366 32 16 32C7.16344 32 0 24.8366 0 16C0 7.16344 7.16344 0 16 0C24.8366 0 32 7.16344 32 16ZM23.4158 8.95002C25.0092 10.3842 25.8925 13.555 25.2958 18.5775C24.7737 23.0088 21.7864 23.7936 20.7836 24.0571L20.7835 24.0571C20.6852 24.083 20.606 24.1038 20.55 24.1225C20.2792 24.2125 17.8958 24.8292 14.7925 24.56L14.4837 24.9292C12.9041 26.819 12.6319 27.1446 12.07 26.9625C11.5483 26.7984 11.5792 25.9817 11.5792 25.9817L11.5833 23.9659H11.5792C7.045 22.6459 7.10834 17.78 7.16167 15.1825C7.215 12.5859 7.70167 10.4884 9.08334 9.05919C12.16 6.13752 20.845 6.50002 23.4167 8.94919L23.4158 8.95002ZM12.5233 26.2267C13.1342 25.5909 15.0983 23.1417 15.0983 23.1417C17.73 23.3175 19.8258 22.7784 20.0517 22.7034C20.1043 22.6858 20.1801 22.6675 20.2746 22.6447L20.2746 22.6447L20.2747 22.6447C21.1287 22.4385 23.5019 21.8655 23.9408 18.2084C23.9404 18.1902 23.9468 18.1258 23.9571 18.022V18.022C24.0615 16.9703 24.5671 11.8771 22.4083 9.96335C20.4683 8.14002 12.8542 7.57419 10.155 10.105C8.98501 11.3009 8.58834 13.0767 8.54667 15.245C8.54524 15.3195 8.54359 15.3963 8.54189 15.4753C8.49423 17.6937 8.41045 21.5937 12.1225 22.6575C12.1225 22.6575 12.1075 25.735 12.1075 26.0042C12.1042 26.4142 12.3233 26.4334 12.5233 26.2267ZM16.185 11.085C15.8642 11.0808 15.8642 10.5808 16.185 10.5808C18.9684 10.6 21.2067 12.5883 21.2334 16.0175H21.2342C21.2384 16.3533 20.7467 16.3575 20.7467 16.0216C20.7242 12.8391 18.6742 11.1041 16.185 11.085ZM19.4592 15.4942C19.4517 15.8259 19.9425 15.8417 19.9467 15.5059C19.9875 13.615 18.8217 12.0575 16.6308 11.8934C16.31 11.87 16.2767 12.3742 16.5967 12.3975C18.4967 12.5417 19.4975 13.8384 19.4592 15.4942ZM17.93 17.7892C18.1033 17.555 18.5225 17.4067 18.9342 17.645C19.4892 17.9692 20.1958 18.4733 20.6642 18.93C20.9284 19.1525 20.9883 19.4925 20.8075 19.8517V19.8575C20.4 20.6 19.6367 21.42 18.8517 21.1583L18.8442 21.1467C18.0475 20.9158 16.1708 19.9158 14.985 18.94C14.2642 18.3506 13.6846 17.7067 13.2145 17.0675C12.3242 15.8573 11.826 14.6643 11.503 13.8906C11.3994 13.6426 11.3139 13.4377 11.2392 13.2892C10.9867 12.4767 11.7758 11.6875 12.4967 11.2658H12.5042C12.8508 11.0783 13.1842 11.1408 13.4058 11.4183C13.4577 11.4909 13.5218 11.5688 13.5982 11.6617L13.5983 11.6618C13.8327 11.9465 14.1825 12.3716 14.6475 13.2117C14.8783 13.6375 14.735 14.0708 14.5083 14.2508L14.055 14.6258C13.825 14.8167 13.8558 15.1725 13.8558 15.1725C13.8558 15.1725 14.5275 17.8008 17.0392 18.465C17.0392 18.465 17.3833 18.4967 17.5675 18.2583L17.93 17.7892ZM16.9742 13.7532C17.775 13.7999 18.1633 14.2182 18.205 15.0774C18.22 15.4132 18.7075 15.3899 18.6925 15.0541C18.6392 13.9324 18.0542 13.3074 17.0009 13.2491C16.68 13.2299 16.65 13.7341 16.9742 13.7532Z" fill="#141116"/>
</svg>
