<svg width="32" height="32" viewBox="0 0 32 32" fill="none" xmlns="http://www.w3.org/2000/svg">
<path d="M22.0634 18.2053C22.4699 18.636 22.8909 19.0832 23.2609 19.579C23.4625 19.8484 23.6924 20.1783 23.8689 20.5613C24.0251 20.9022 24.0284 21.2834 23.877 21.5812C23.7555 21.8222 23.5483 21.9716 23.3094 21.9881C23.3046 21.989 23.2989 21.9899 23.2941 21.9899H20.8959C20.2531 22.0431 19.6937 21.7892 19.186 21.211C18.9545 20.948 18.7318 20.6694 18.5173 20.4009C18.4177 20.2754 18.3181 20.1508 18.2177 20.0271C18.1108 19.896 17.9805 19.7485 17.8283 19.6367C17.7441 19.5762 17.6647 19.5442 17.6016 19.5442C17.5684 19.5442 17.468 19.5442 17.3603 19.7622C17.1895 20.1095 17.1514 20.5173 17.1352 20.9077C17.1029 21.6683 16.8438 21.9505 16.1459 21.989C16.0034 21.9954 15.8625 22 15.7265 22C14.525 22 13.4927 21.7132 12.5722 21.123C11.6986 20.5659 10.9384 19.7705 10.1814 18.6195C9.09972 16.9793 8.15084 15.0851 7.10399 12.4818C6.97364 12.1564 6.96555 11.887 7.08132 11.6836C7.1971 11.4774 7.41732 11.3711 7.73469 11.3656C8.10631 11.3574 8.48683 11.3528 8.8965 11.3528C9.27217 11.3528 9.66564 11.3555 10.0996 11.3638C10.4947 11.3711 10.8024 11.625 10.9675 12.0767C11.4128 13.3046 11.9269 14.3695 12.539 15.339C12.7187 15.624 12.8734 15.8558 13.0839 16.0171C13.1737 16.0849 13.2223 16.0913 13.2393 16.0913C13.2928 16.0913 13.3446 15.9658 13.36 15.9264C13.4231 15.7577 13.462 15.5626 13.4814 15.3078C13.551 14.397 13.5389 13.6419 13.4442 12.9344C13.3899 12.5276 13.198 12.2939 12.858 12.2215L12.8561 12.2211C12.7854 12.2061 12.5781 12.1619 12.5139 11.9567C12.4508 11.756 12.5761 11.59 12.6385 11.5073L12.641 11.504C12.8701 11.2025 13.1146 11 13.5575 11H16.2778C16.2924 11 16.3078 11.0027 16.3224 11.0055C16.8794 11.1292 17.0267 11.4701 17.0931 12.0208C17.0948 12.0318 17.0956 12.0447 17.0956 12.0547L17.0972 15.4471C17.0931 15.6194 17.1862 15.9969 17.3247 16.0565C17.3368 16.0611 17.3482 16.0611 17.3579 16.0611C17.4235 16.0611 17.5125 15.9557 17.5919 15.8604L17.6194 15.8274C18.2881 15.0329 18.7504 14.079 19.114 13.2524C19.2969 12.8382 19.4564 12.4011 19.603 11.9915C19.7552 11.5626 20.0215 11.3537 20.4175 11.3537L23.0544 11.3555C23.1402 11.3555 23.2325 11.3583 23.3256 11.3775C23.5135 11.4114 23.779 11.4884 23.9167 11.7395C24.0535 11.9897 23.9936 12.2893 23.9361 12.4918C23.7171 13.2629 23.3053 13.9006 22.9061 14.519L22.9038 14.5225L22.8609 14.5894C22.6713 14.883 22.4744 15.1744 22.2822 15.4587C22.2626 15.4876 22.2432 15.5164 22.2237 15.5452C21.9906 15.8888 21.7501 16.2443 21.5234 16.599C21.1963 17.1112 21.2109 17.2835 21.6246 17.7353C21.7593 17.8843 21.8989 18.0317 22.0349 18.1752L22.0634 18.2053Z" fill="#141116"/>
<path fill-rule="evenodd" clip-rule="evenodd" d="M16 32C24.8366 32 32 24.8366 32 16C32 7.16344 24.8366 0 16 0C7.16344 0 0 7.16344 0 16C0 24.8366 7.16344 32 16 32ZM30 16C30 23.732 23.732 30 16 30C8.26801 30 2 23.732 2 16C2 8.26801 8.26801 2 16 2C23.732 2 30 8.26801 30 16Z" fill="#141116"/>
</svg>
