<svg width="40" height="40" viewBox="0 0 40 40" fill="none" xmlns="http://www.w3.org/2000/svg">
    <rect width="40" height="40" rx="20" fill="#141116"/>
    <path fill-rule="evenodd" clip-rule="evenodd" d="M28.1739 23.579C27.7604 23.0832 27.2898 22.636 26.8356 22.2053C26.6736 22.0523 26.5062 21.8947 26.3451 21.7353C25.8828 21.2835 25.8665 21.1112 26.232 20.599C26.4854 20.2443 26.7542 19.8888 27.0148 19.5452C27.25 19.2336 27.4934 18.9129 27.7269 18.5894L27.7749 18.5225C28.2219 17.903 28.6833 17.2643 28.9286 16.4918C28.9928 16.2893 29.0598 15.9897 28.9068 15.7395C28.753 15.4884 28.4562 15.4114 28.2463 15.3775C28.1422 15.3583 28.0391 15.3555 27.9432 15.3555L25.0204 15.3537H24.996C24.5535 15.3537 24.2558 15.5626 24.0857 15.9915C23.9219 16.4011 23.7436 16.8382 23.5391 17.2524C23.1328 18.079 22.6162 19.0329 21.8687 19.8274L21.838 19.8604C21.7493 19.9557 21.6498 20.0611 21.5765 20.0611C21.5656 20.0611 21.5529 20.0611 21.5394 20.0565C21.3846 19.9969 21.2806 19.6194 21.2851 19.4471C21.2851 19.4453 21.2851 19.4425 21.2851 19.4389L21.2833 16.0547C21.2833 16.0447 21.2824 16.0318 21.2806 16.0208C21.2064 15.4701 21.0417 15.1292 20.4191 15.0055C20.4028 15.0027 20.3856 15 20.3694 15H17.329C16.834 15 16.5607 15.2025 16.3047 15.504C16.2359 15.5856 16.0911 15.7532 16.1626 15.9567C16.235 16.1638 16.4703 16.2068 16.5472 16.2215C16.9272 16.2939 17.1417 16.5276 17.2023 16.9344C17.3082 17.6419 17.3217 18.397 17.2439 19.3078C17.2222 19.5626 17.1788 19.7577 17.1082 19.9264C17.091 19.9658 17.0331 20.0913 16.9734 20.0913C16.9544 20.0913 16.9001 20.0849 16.7996 20.0171C16.5644 19.8558 16.3915 19.624 16.1906 19.339C15.5066 18.3695 14.932 17.3046 14.4343 16.0767C14.2497 15.625 13.9058 15.3711 13.4643 15.3638C12.9792 15.3555 12.5395 15.3528 12.1196 15.3528C11.6618 15.3528 11.2365 15.3574 10.8211 15.3656C10.4664 15.3711 10.2203 15.4774 10.0909 15.6836C9.96149 15.887 9.97054 16.1564 10.1162 16.4818C11.2862 19.0851 12.3467 20.9793 13.5557 22.6195C14.4017 23.7705 15.2514 24.5659 16.2277 25.123C17.2566 25.7132 18.4103 26 19.7531 26C19.9052 26 20.0626 25.9954 20.2219 25.989C21.0019 25.9505 21.2914 25.6683 21.3276 24.9077C21.3457 24.5173 21.3882 24.1095 21.5792 23.7622C21.6995 23.5442 21.8117 23.5442 21.8488 23.5442C21.9194 23.5442 22.0081 23.5762 22.1022 23.6367C22.2723 23.7485 22.418 23.896 22.5374 24.0271C22.6496 24.1508 22.7609 24.2754 22.8722 24.4009C23.112 24.6694 23.3609 24.948 23.6197 25.211C24.187 25.7892 24.8123 26.0431 25.5308 25.9899H28.211C28.2164 25.9899 28.2228 25.989 28.2282 25.9881C28.4951 25.9716 28.7268 25.8222 28.8625 25.5812C29.0317 25.2834 29.0281 24.9022 28.8535 24.5613C28.6562 24.1783 28.3992 23.8484 28.1739 23.579Z" fill="white"/>
</svg>
