<svg width="24" height="24" viewBox="0 0 24 24" fill="none" xmlns="http://www.w3.org/2000/svg">
    <path fill-rule="evenodd" clip-rule="evenodd" d="M20.1739 15.579C19.7604 15.0832 19.2898 14.636 18.8356 14.2053C18.6736 14.0523 18.5062 13.8947 18.3451 13.7353C17.8828 13.2835 17.8665 13.1112 18.232 12.599C18.4854 12.2443 18.7542 11.8888 19.0148 11.5452C19.25 11.2336 19.4934 10.9129 19.7269 10.5894L19.7749 10.5225C20.2219 9.90303 20.6833 9.26433 20.9286 8.49184C20.9928 8.28932 21.0598 7.98967 20.9068 7.7395C20.753 7.48842 20.4562 7.41145 20.2463 7.37754C20.1422 7.3583 20.0391 7.35555 19.9432 7.35555L17.0204 7.35372H16.996C16.5535 7.35372 16.2558 7.56265 16.0857 7.9915C15.9219 8.40112 15.7436 8.83822 15.5391 9.25242C15.1328 10.079 14.6162 11.0329 13.8687 11.8274L13.838 11.8604C13.7493 11.9557 13.6498 12.0611 13.5765 12.0611C13.5656 12.0611 13.5529 12.0611 13.5394 12.0565C13.3846 11.9969 13.2806 11.6194 13.2851 11.4471C13.2851 11.4453 13.2851 11.4425 13.2851 11.4389L13.2833 8.05473C13.2833 8.04465 13.2824 8.03182 13.2806 8.02083C13.2064 7.47009 13.0417 7.12921 12.4191 7.0055C12.4028 7.00275 12.3856 7 12.3694 7H9.32898C8.83401 7 8.56074 7.20252 8.30466 7.504C8.23589 7.58555 8.09111 7.75325 8.1626 7.95668C8.23499 8.16378 8.47025 8.20685 8.54717 8.22151C8.92722 8.2939 9.14167 8.52757 9.2023 8.93444C9.30817 9.64187 9.32174 10.397 9.24392 11.3078C9.22221 11.5626 9.17877 11.7577 9.10819 11.9264C9.091 11.9658 9.03309 12.0913 8.97336 12.0913C8.95436 12.0913 8.90007 12.0849 8.79963 12.0171C8.56436 11.8558 8.39153 11.624 8.19065 11.339C7.50656 10.3695 6.93197 9.30465 6.43429 8.07672C6.24969 7.62496 5.90584 7.37113 5.46426 7.3638C4.97925 7.35555 4.53948 7.3528 4.11962 7.3528C3.66175 7.3528 3.23646 7.35738 2.82112 7.36563C2.46641 7.37113 2.22029 7.47742 2.09089 7.68361C1.96149 7.88704 1.97054 8.15645 2.11623 8.48176C3.28623 11.0851 4.34674 12.9793 5.55565 14.6195C6.40171 15.7705 7.25139 16.5659 8.22775 17.123C9.25659 17.7132 10.4103 18 11.7531 18C11.9052 18 12.0626 17.9954 12.2219 17.989C13.0019 17.9505 13.2914 17.6683 13.3276 16.9077C13.3457 16.5173 13.3882 16.1095 13.5792 15.7622C13.6995 15.5442 13.8117 15.5442 13.8488 15.5442C13.9194 15.5442 14.0081 15.5762 14.1022 15.6367C14.2723 15.7485 14.418 15.896 14.5374 16.0271C14.6496 16.1508 14.7609 16.2754 14.8722 16.4009C15.112 16.6694 15.3609 16.948 15.6197 17.211C16.187 17.7892 16.8123 18.0431 17.5308 17.9899H20.211C20.2164 17.9899 20.2228 17.989 20.2282 17.9881C20.4951 17.9716 20.7268 17.8222 20.8625 17.5812C21.0317 17.2834 21.0281 16.9022 20.8535 16.5613C20.6562 16.1783 20.3992 15.8484 20.1739 15.579Z" fill="#48729E"/>
</svg>
