<svg width="32" height="32" viewBox="0 0 32 32" fill="none" xmlns="http://www.w3.org/2000/svg">
<path fill-rule="evenodd" clip-rule="evenodd" d="M32 16C32 24.8366 24.8366 32 16 32C7.16344 32 0 24.8366 0 16C0 7.16344 7.16344 0 16 0C24.8366 0 32 7.16344 32 16ZM6 26L7.40069 21.0306C6.49996 19.5021 6.02573 17.7629 6.02573 15.9763C6.02573 10.4754 10.5059 6 16.0129 6C21.5198 6 26 10.4754 26 15.9763C26 21.4773 21.5198 25.9527 16.0129 25.9527C14.297 25.9527 12.6167 25.5139 11.1303 24.6808L6 26ZM11.3926 22.8658L11.6983 23.0523C12.9943 23.8426 14.4863 24.2604 16.0129 24.2604C20.5857 24.2604 24.3058 20.5442 24.3058 15.9763C24.3058 11.4085 20.5857 7.69232 16.0129 7.69232C11.4401 7.69232 7.71988 11.4085 7.71988 15.9763C7.71988 17.5679 8.17272 19.1135 9.02934 20.446L9.23521 20.7662L8.4286 23.628L11.3926 22.8658ZM13.2124 11.0386L12.5734 11.0012C12.3728 10.9895 12.1759 11.0614 12.0242 11.2025C11.7144 11.4907 11.2191 12.0479 11.067 12.774C10.8401 13.8566 11.1907 15.1822 12.0981 16.5079C13.0055 17.8335 14.6965 19.9546 17.6867 20.8604C18.6503 21.1523 19.4082 20.9556 19.9931 20.5547C20.4563 20.2373 20.7755 19.7278 20.8906 19.1518L20.9926 18.6413C21.0251 18.479 20.9482 18.3144 20.8075 18.2449L18.648 17.1785C18.5078 17.1093 18.3416 17.1531 18.2473 17.284L17.3996 18.4614C17.3355 18.5504 17.2259 18.5856 17.1269 18.5484C16.5464 18.3298 14.6017 17.4572 13.5346 15.255C13.4883 15.1595 13.4998 15.0435 13.5655 14.9621L14.3757 13.9579C14.4584 13.8554 14.4794 13.7112 14.4296 13.5866L13.4988 11.2534C13.4492 11.1292 13.3382 11.0459 13.2124 11.0386Z" fill="#141116"/>
</svg>
