<svg width="40" height="40" viewBox="0 0 40 40" fill="none" xmlns="http://www.w3.org/2000/svg">
    <rect width="40" height="40" rx="20" fill="#141116"/>
    <path fill-rule="evenodd" clip-rule="evenodd" d="M30 19.7424C30 25.1231 25.6047 29.4849 20.1818 29.4849C18.4604 29.4849 16.8429 29.0447 15.4358 28.2727L10 30L11.7722 24.7729C10.8782 23.3047 10.3633 21.5829 10.3633 19.7424C10.3633 14.3618 14.7591 10 20.1818 10C25.6051 10 30 14.3618 30 19.7424ZM20.1818 11.5516C15.6298 11.5516 11.9271 15.226 11.9271 19.7424C11.9271 21.5347 12.5113 23.1944 13.4996 24.5447L12.4682 27.5867L15.6404 26.5784C16.9438 27.434 18.5051 27.9331 20.1818 27.9331C24.7333 27.9331 28.4364 24.2591 28.4364 19.7427C28.4364 15.2262 24.7336 11.5516 20.1818 11.5516ZM25.1398 21.9862C25.0791 21.8867 24.9189 21.8269 24.6784 21.7076C24.4376 21.5882 23.254 21.0102 23.0338 20.9309C22.8131 20.8511 22.6524 20.8111 22.492 21.0502C22.3318 21.2893 21.8704 21.8269 21.7298 21.9862C21.5893 22.1458 21.4491 22.1658 21.2084 22.0462C20.968 21.9269 20.1924 21.6744 19.2731 20.8611C18.5578 20.2282 18.0747 19.4469 17.9342 19.2076C17.794 18.9687 17.9196 18.8396 18.0398 18.7207C18.1482 18.6136 18.2807 18.4418 18.4009 18.3024C18.5216 18.1629 18.5616 18.0636 18.6413 17.904C18.722 17.7447 18.6818 17.6053 18.6213 17.4856C18.5613 17.3662 18.0796 16.1911 17.8791 15.7129C17.6787 15.2351 17.4784 15.3147 17.3378 15.3147C17.1976 15.3147 17.0369 15.2947 16.8764 15.2947C16.716 15.2947 16.4551 15.3544 16.2344 15.5933C16.014 15.8324 15.3924 16.4102 15.3924 17.5851C15.3924 18.7602 16.2544 19.8956 16.3751 20.0547C16.4953 20.2138 18.0396 22.7036 20.486 23.6598C22.9333 24.6158 22.9333 24.2969 23.3747 24.2569C23.8156 24.2173 24.7982 23.6796 24.9993 23.122C25.1996 22.5638 25.1996 22.0858 25.1398 21.9862Z" fill="white"/>
</svg>
