<svg width="24" height="24" viewBox="0 0 24 24" fill="none" xmlns="http://www.w3.org/2000/svg">
    <path fill-rule="evenodd" clip-rule="evenodd" d="M22 11.7424C22 17.1231 17.6047 21.4849 12.1818 21.4849C10.4604 21.4849 8.84289 21.0447 7.43578 20.2727L2 22L3.77222 16.7729C2.87822 15.3047 2.36333 13.5829 2.36333 11.7424C2.36333 6.36178 6.75911 2 12.1818 2C17.6051 2 22 6.36178 22 11.7424ZM12.1818 3.55156C7.62978 3.55156 3.92711 7.226 3.92711 11.7424C3.92711 13.5347 4.51133 15.1944 5.49956 16.5447L4.46822 19.5867L7.64044 18.5784C8.94378 19.434 10.5051 19.9331 12.1818 19.9331C16.7333 19.9331 20.4364 16.2591 20.4364 11.7427C20.4364 7.22622 16.7336 3.55156 12.1818 3.55156ZM17.1398 13.9862C17.0791 13.8867 16.9189 13.8269 16.6784 13.7076C16.4376 13.5882 15.254 13.0102 15.0338 12.9309C14.8131 12.8511 14.6524 12.8111 14.492 13.0502C14.3318 13.2893 13.8704 13.8269 13.7298 13.9862C13.5893 14.1458 13.4491 14.1658 13.2084 14.0462C12.968 13.9269 12.1924 13.6744 11.2731 12.8611C10.5578 12.2282 10.0747 11.4469 9.93422 11.2076C9.794 10.9687 9.91956 10.8396 10.0398 10.7207C10.1482 10.6136 10.2807 10.4418 10.4009 10.3024C10.5216 10.1629 10.5616 10.0636 10.6413 9.904C10.722 9.74467 10.6818 9.60533 10.6213 9.48556C10.5613 9.36622 10.0796 8.19111 9.87911 7.71289C9.67867 7.23511 9.47844 7.31467 9.33778 7.31467C9.19756 7.31467 9.03689 7.29467 8.87644 7.29467C8.716 7.29467 8.45511 7.35444 8.23444 7.59333C8.014 7.83244 7.39244 8.41022 7.39244 9.58511C7.39244 10.7602 8.25444 11.8956 8.37511 12.0547C8.49533 12.2138 10.0396 14.7036 12.486 15.6598C14.9333 16.6158 14.9333 16.2969 15.3747 16.2569C15.8156 16.2173 16.7982 15.6796 16.9993 15.122C17.1996 14.5638 17.1996 14.0858 17.1398 13.9862Z" fill="#65BC54"/>
</svg>
