<svg width="32" height="32" viewBox="0 0 32 32" fill="none" xmlns="http://www.w3.org/2000/svg">
<rect width="32" height="32" rx="6" fill="#F21818"/>
<path fill-rule="evenodd" clip-rule="evenodd" d="M24.2984 11.1159C23.6487 10.3233 22.449 10 20.1581 10H11.8418C9.49835 10 8.27841 10.3442 7.6311 11.1881C7 12.0108 7 13.2231 7 14.901V18.099C7 21.3496 7.7488 23 11.8418 23H20.1581C22.1449 23 23.2457 22.7147 23.958 22.0152C24.6884 21.2979 25 20.1267 25 18.099V14.901C25 13.1316 24.9512 11.9121 24.2984 11.1159ZM18.556 16.9415L14.7797 18.967C14.6952 19.0123 14.6029 19.0347 14.5107 19.0347C14.4063 19.0347 14.3021 19.0059 14.2099 18.9486C14.0362 18.8405 13.9301 18.6473 13.9301 18.4388V14.401C13.9301 14.1929 14.0358 13.9998 14.2092 13.8917C14.3827 13.7836 14.5984 13.7762 14.7783 13.8722L18.5547 15.8846C18.7468 15.987 18.8675 16.1905 18.8678 16.4126C18.8681 16.6348 18.7479 16.8387 18.556 16.9415Z" fill="white"/>
</svg>
