<svg width="24" height="24" viewBox="0 0 24 24" xmlns="http://www.w3.org/2000/svg">
    <path fill-rule="evenodd" clip-rule="evenodd" d="M20.2984 6.11594C19.6487 5.32331 18.449 5 16.1581 5H7.84175C5.49835 5 4.27841 5.34419 3.6311 6.18806C3 7.01084 3 8.22315 3 9.90102V13.099C3 16.3496 3.7488 18 7.84175 18H16.1581C18.1449 18 19.2457 17.7147 19.958 17.0152C20.6884 16.2979 21 15.1267 21 13.099V9.90102C21 8.13157 20.9512 6.91211 20.2984 6.11594ZM14.556 11.9415L10.7797 13.967C10.6952 14.0123 10.6029 14.0347 10.5107 14.0347C10.4063 14.0347 10.3021 14.0059 10.2099 13.9486C10.0362 13.8405 9.93007 13.6473 9.93007 13.4388V9.40095C9.93007 9.19288 10.0358 8.99982 10.2092 8.89173C10.3827 8.78362 10.5984 8.77623 10.7783 8.87218L14.5547 10.8846C14.7468 10.987 14.8675 11.1905 14.8678 11.4126C14.8681 11.6348 14.7479 11.8387 14.556 11.9415Z" />
</svg>
